<?xml version="1.0" standalone="no"?>
<!DOCTYPE svg PUBLIC "-//W3C//DTD SVG 20010904//EN"
 "http://www.w3.org/TR/2001/REC-SVG-20010904/DTD/svg10.dtd">
<svg version="1.0" xmlns="http://www.w3.org/2000/svg"
 width="150.000000pt" height="150.000000pt" viewBox="0 0 150.000000 150.000000"
 preserveAspectRatio="xMidYMid meet">
<metadata>
Created by potrace 1.11, written by Peter Selinger 2001-2013
</metadata>
<g transform="translate(0.000000,150.000000) scale(0.100000,-0.100000)"
fill="#000000" stroke="none">
<path d="M461 808 c-10 -24 -39 -87 -65 -142 -25 -54 -43 -102 -40 -108 9 -14
29 7 49 52 18 40 20 41 64 38 44 -3 45 -4 53 -43 9 -41 23 -63 34 -52 4 3 -6
72 -21 152 -30 160 -42 177 -74 103z m38 -100 c1 -25 -3 -28 -29 -28 -16 0
-30 2 -30 5 0 2 10 25 22 51 21 42 23 44 29 22 4 -12 7 -35 8 -50z"/>
<path d="M905 828 c-18 -82 -35 -262 -26 -271 15 -15 21 -6 27 39 11 84 10 83
61 86 63 4 71 28 9 28 -24 0 -47 3 -49 8 -2 4 -2 28 1 54 l4 47 61 3 c37 2 62
8 65 16 3 9 -16 12 -72 12 -70 0 -76 -2 -81 -22z"/>
<path d="M652 568 c5 -15 28 -18 29 -3 0 6 -7 12 -17 13 -10 3 -15 -1 -12 -10z"/>
<path d="M1102 568 c5 -15 28 -18 29 -3 0 6 -7 12 -17 13 -10 3 -15 -1 -12
-10z"/>
</g>
</svg>
